<?xml version="1.0" encoding="UTF-8"?>
<!DOCTYPE svg PUBLIC "-//W3C//DTD SVG 1.1//EN" "http://www.w3.org/Graphics/SVG/1.1/DTD/svg11.dtd">
<!-- Creator: CorelDRAW 2021 (64-Bit) -->
<svg xmlns="http://www.w3.org/2000/svg" xml:space="preserve" width="8.4419mm" height="10.4829mm" version="1.1" style="shape-rendering:geometricPrecision; text-rendering:geometricPrecision; image-rendering:optimizeQuality; fill-rule:evenodd; clip-rule:evenodd"
viewBox="0 0 8.63 10.71"
 xmlns:xlink="http://www.w3.org/1999/xlink"
 xmlns:xodm="http://www.corel.com/coreldraw/odm/2003">
 <defs>
  <style type="text/css">
   <![CDATA[
    .fil0 {fill:white}
   ]]>
  </style>
 </defs>
 <g id="Capa_x0020_1">
  <metadata id="CorelCorpID_0Corel-Layer"/>
  <g id="_2022023598944">
   <path class="fil0" d="M5.86 0.83l1.27 1.26c-1.45,0.04 -1.27,0.07 -1.27,-0.63 0,-0.21 0,-0.42 0,-0.63zm-5.86 0.48l0 7.65c0,0.74 0.45,1.31 1.16,1.31l3.06 0c0.18,0 0.3,-0.22 0.18,-0.38 -0.11,-0.14 -0.34,-0.1 -0.58,-0.1 -0.55,0 -2.31,0.03 -2.71,-0 -0.17,-0.01 -0.37,-0.12 -0.45,-0.23 -0.11,-0.14 -0.18,-0.28 -0.18,-0.52l0 -7.83c0,-0.21 0.08,-0.4 0.18,-0.52 0.09,-0.11 0.31,-0.22 0.5,-0.22l4.15 0c0.1,0 0.07,0.17 0.07,0.28 -0,0.31 -0.04,1.18 0.05,1.39 0.11,0.26 0.36,0.42 0.67,0.42l1.36 0 0.02 2.8c0,0.31 -0.08,0.7 0.24,0.7 0.17,0 0.24,-0.16 0.24,-0.33l0 -2.89c0,-0.23 -0.03,-0.43 -0.1,-0.6 -0.15,-0.36 -0.68,-0.81 -0.99,-1.11 -0.22,-0.22 -0.84,-0.89 -1.08,-1.02 -0.14,-0.08 -0.35,-0.14 -0.56,-0.14l-4.07 0c-0.48,0 -0.92,0.35 -1.07,0.76 -0.05,0.15 -0.08,0.34 -0.08,0.55z"/>
   <path class="fil0" d="M6.93 9.34l0.17 -0.14c0.07,-0.07 0.07,-0.11 0.16,-0.17 0.06,0.04 0.1,0.08 0.14,0.14 0.13,0.17 0.67,0.66 0.71,0.73 0.07,0.11 0.02,0.33 -0.2,0.33 -0.15,0 -0.38,-0.28 -0.52,-0.42 -0.12,-0.12 -0.39,-0.36 -0.46,-0.48zm-2.95 -1.64c0,-0.22 0.06,-0.44 0.14,-0.64 0.24,-0.59 0.86,-0.97 1.52,-0.97 1.09,0 1.96,1.16 1.44,2.32 -0.06,0.14 -0.23,0.38 -0.33,0.48l-0.22 0.17c-0.44,0.32 -1.1,0.38 -1.59,0.14 -0.58,-0.29 -0.96,-0.83 -0.96,-1.49zm-0.48 0c0,1.14 0.93,2.04 1.9,2.1 0.39,0.02 0.76,-0.01 1.12,-0.2l0.62 0.63c0.28,0.28 0.4,0.49 0.85,0.49 0.47,0 0.87,-0.67 0.51,-1.12 -0.11,-0.14 -0.54,-0.54 -0.72,-0.72l-0.25 -0.26c0.07,-0.3 0.2,-0.39 0.2,-0.92 0,-1.13 -0.97,-2.1 -1.99,-2.1 -0.44,0 -0.64,0.02 -1.04,0.2 -0.24,0.11 -0.41,0.26 -0.59,0.44 -0.32,0.31 -0.6,0.84 -0.6,1.46z"/>
   <path class="fil0" d="M1.62 5.14l4.72 0c0.27,0 0.31,-0.48 -0.09,-0.48l-4.55 0c-0.4,0 -0.36,0.48 -0.09,0.48z"/>
   <path class="fil0" d="M2.34 3.98l3.98 0c0.3,0 0.3,-0.48 0,-0.48l-3.98 0c-0.3,0 -0.3,0.48 0,0.48z"/>
   <path class="fil0" d="M1.64 2.58l2.58 0c0.3,0 0.3,-0.48 0,-0.48l-2.58 0c-0.3,0 -0.3,0.48 0,0.48z"/>
   <path class="fil0" d="M4.44 7.7c0,1.01 1.29,1.49 1.41,0.99 0.02,-0.1 -0.03,-0.21 -0.12,-0.26 -0.08,-0.05 -0.73,-0.01 -0.8,-0.64 -0.01,-0.1 0.01,-0.11 -0.03,-0.19 -0.13,-0.23 -0.45,-0.11 -0.45,0.1z"/>
   <path class="fil0" d="M1.71 6.32l1.29 0c0.4,0 0.34,-0.48 0.07,-0.48l-1.44 0c-0.27,0 -0.31,0.48 0.09,0.48z"/>
   <path class="fil0" d="M1.62 8.64l1.22 0c0.27,0 0.31,-0.48 -0.09,-0.48l-1.05 0c-0.4,0 -0.36,0.48 -0.09,0.48z"/>
   <path class="fil0" d="M1.64 7.48l0.94 0c0.31,0 0.31,-0.48 0,-0.48l-0.94 0c-0.3,0 -0.3,0.48 0,0.48z"/>
  </g>
 </g>
</svg>
