<?xml version="1.0" encoding="UTF-8"?>
<!DOCTYPE svg PUBLIC "-//W3C//DTD SVG 1.1//EN" "http://www.w3.org/Graphics/SVG/1.1/DTD/svg11.dtd">
<!-- Creator: CorelDRAW 2021 (64-Bit) -->
<svg xmlns="http://www.w3.org/2000/svg" xml:space="preserve" width="75.4347mm" height="28.4895mm" version="1.1" style="shape-rendering:geometricPrecision; text-rendering:geometricPrecision; image-rendering:optimizeQuality; fill-rule:evenodd; clip-rule:evenodd"
viewBox="0 0 704.57 266.1"
 xmlns:xlink="http://www.w3.org/1999/xlink"
 xmlns:xodm="http://www.corel.com/coreldraw/odm/2003">
 <defs>
  <style type="text/css">
   <![CDATA[
    .fil0 {fill:#E10B62}
   ]]>
  </style>
 </defs>
 <g id="Capa_x0020_1">
  <metadata id="CorelCorpID_0Corel-Layer"/>
  <path class="fil0" d="M696.26 0l-0.39 1.39c-3.97,13.95 -9.19,27.29 -14.66,40.53l-11.46 24c-4.81,8.93 -9.55,17.93 -15.2,26.37 -1.53,2.28 -2.89,4.45 -4.37,6.67l-4.5 6.54c-3.11,4.19 -6,8.5 -9.22,12.62 -3.3,4.22 -6.41,8.17 -9.84,12.24 -4.15,4.93 -21.61,24.5 -26.6,28.35l-8.49 7.95c-0.61,0.59 -0.93,0.69 -1.53,1.28l-5.87 5.17c-0.53,0.49 -0.96,0.79 -1.53,1.29l-18.53 14.58c-0.56,0.42 -0.97,0.67 -1.51,1.07 -0.58,0.42 -1.06,0.82 -1.61,1.21 -1.09,0.77 -2.23,1.5 -3.32,2.31 -4.18,3.11 -8.65,6.01 -13.07,8.77 -5.63,3.52 -11.33,7.12 -17.19,10.29 -1.17,0.64 -2.41,1.29 -3.62,2.01 -0.65,0.39 -1.04,0.52 -1.7,0.88 -0.73,0.39 -1.01,0.63 -1.8,1.02l-26.02 12.49c-13.72,5.66 -26.28,10.44 -40.5,14.68 -5.73,1.71 -11.47,3.26 -17.41,4.66 -17.84,4.21 -33.31,6.49 -51.91,8.44 -1.56,0.16 -3.45,0.41 -5.21,0.43 -1.23,0.01 -1.29,0.19 -2.34,0.24l-5.41 0.23c-1.27,0.01 -1.38,0.22 -2.57,0.25 -8.08,0.24 -25.55,0.64 -33.57,-0.02 -1.29,-0.11 -3.71,-0.11 -5.08,-0.32l-10.21 -0.82c-24.04,-1.87 -47.09,-6.81 -69.82,-13.3 -2.94,-0.84 -5.59,-1.64 -8.44,-2.59l-12.39 -4.29c-1.46,-0.49 -2.63,-1 -4.11,-1.53 -12,-4.27 -29.14,-12.03 -39.93,-18.07 -0.68,-0.38 -1.17,-0.59 -1.88,-0.94 -4.86,-2.43 -9.57,-5.29 -14.24,-8.07 -5.63,-3.36 -11.71,-6.91 -16.97,-10.74l-22.35 -16.39c-3.54,-2.91 -7.35,-5.64 -10.68,-8.81 -0.61,-0.58 -0.95,-0.75 -1.53,-1.29l-7.27 -6.58c-0.61,-0.59 -0.93,-0.69 -1.53,-1.28 -6.57,-6.32 -13.19,-12.69 -19.37,-19.38l-6.56 -7.29c-0.56,-0.67 -0.68,-0.87 -1.3,-1.51 -1.84,-1.89 -3.41,-4.11 -5.16,-6.12 -8.23,-9.44 -16.55,-21.32 -23.57,-31.85 -7.48,-11.23 -14.26,-23.02 -20.37,-35.05 -2.46,-4.84 -5.12,-10.1 -7.16,-15.14l-6.54 -15.53c-2.14,-5.33 -4.13,-10.82 -5.97,-16.34 -1.6,-4.81 -3.13,-9.69 -4.57,-14.67l-8.31 0c2.93,10.08 6.04,19.82 9.76,29.53 0.59,1.55 1.07,2.71 1.64,4.23 4.55,12.01 10.23,23.67 15.91,35.05 0.69,1.39 1.28,2.31 1.96,3.68 2.51,5.07 5.33,9.7 8.22,14.56 1.47,2.46 2.81,4.78 4.35,7.16l13.71 20.34c4.59,6.68 9.74,12.92 14.85,19.2 2.39,2.94 6.34,7.72 9.13,10.6 1.46,1.51 2.83,2.82 4.15,4.53l5.48 5.79c1.71,1.71 12.48,12.58 14.35,14.07 1.17,0.93 1.84,1.83 2.95,2.68 2.11,1.63 3.9,3.64 5.97,5.3l15.77 12.88c16.16,12.37 25.16,18.03 42.45,28.46l5.44 3.02c2.38,1.38 5.11,2.59 7.48,4.03 2.22,1.35 5.06,2.58 7.48,3.79 7.66,3.83 15.57,7.34 23.53,10.52 2.66,1.06 5.28,2.09 8.09,3.19l8.41 3.09c14.48,4.84 29.34,9.34 44.37,12.46 3.1,0.64 6.36,1.36 9.41,1.86 6.47,1.07 12.88,2.33 19.67,3.1 5.6,0.64 15.27,2.05 20.69,2.09 1.28,0.01 1.39,0.22 2.57,0.25l5.42 0.22c1.27,0.01 1.38,0.22 2.57,0.25 10.88,0.33 22.02,0.14 32.89,0l10.56 -0.72c10.48,-0.27 29.46,-3.29 39.98,-5.1 12.48,-2.14 24.33,-5.18 36.41,-8.67 5.75,-1.66 11.55,-3.29 17.06,-5.48 1.35,-0.54 2.74,-0.92 4.16,-1.48l12.24 -4.66c5.29,-2.11 10.59,-4.48 15.76,-6.78l11.43 -5.48c3.46,-1.73 8.02,-3.98 11.07,-5.84l7.22 -4.05c2.42,-1.43 4.78,-2.68 7.1,-4.17 2.34,-1.51 4.6,-2.78 6.95,-4.32 2.36,-1.54 4.47,-2.91 6.81,-4.46l10 -6.91c5.46,-3.85 10.78,-8.02 16,-12.18l9.23 -7.68c4.03,-3.14 11.09,-9.73 14.75,-13.43l2.94 -2.7c2.28,-2.28 4.98,-4.59 7.03,-7.06l10.82 -11.73c1.95,-1.94 7.29,-8.36 9.08,-10.65l17.04 -22.41c4.7,-6.62 9.15,-13.51 13.34,-20.47l6.22 -10.69c0.69,-1.24 1.28,-2.46 2,-3.64 2.79,-4.59 9.16,-17.67 11.31,-22.5 7.62,-17.08 14.39,-34.6 19.41,-52.68l-8.32 0z"/>
 </g>
</svg>
