<?xml version="1.0" encoding="UTF-8"?>
<!DOCTYPE svg PUBLIC "-//W3C//DTD SVG 1.1//EN" "http://www.w3.org/Graphics/SVG/1.1/DTD/svg11.dtd">
<!-- Creator: CorelDRAW 2021 (64-Bit) -->
<svg xmlns="http://www.w3.org/2000/svg" xml:space="preserve" width="9.0809mm" height="13.6213mm" version="1.1" style="shape-rendering:geometricPrecision; text-rendering:geometricPrecision; image-rendering:optimizeQuality; fill-rule:evenodd; clip-rule:evenodd"
viewBox="0 0 6.25 9.37"
 xmlns:xlink="http://www.w3.org/1999/xlink"
 xmlns:xodm="http://www.corel.com/coreldraw/odm/2003">
 <defs>
  <style type="text/css">
   <![CDATA[
    .fil0 {fill:white}
   ]]>
  </style>
 </defs>
 <g id="Capa_x0020_1">
  <metadata id="CorelCorpID_0Corel-Layer"/>
  <path class="fil0" d="M0.69 5.99c0,-1.74 -0.26,-3.41 0.64,-4.48 0.16,-0.19 0.53,-0.46 0.74,-0.56 0.66,-0.31 1.34,-0.32 2.03,-0.03 1.84,0.79 1.45,3.03 1.45,5.06 0,2.68 -2.84,3.38 -4.18,1.92 -0.42,-0.46 -0.68,-1.06 -0.68,-1.92zm-0.69 -3.21l0 3.82c0,1.3 1.47,2.78 2.78,2.78l0.52 0c1.54,0 2.95,-1.41 2.95,-2.95l0 -3.64c0,-1.3 -1.47,-2.78 -2.78,-2.78 -0.98,0 -1.76,0.07 -2.58,0.89 -0.35,0.35 -0.89,1.23 -0.89,1.89z"/>
  <path class="fil0" d="M2.78 2.26c0,0.71 -0.14,1.39 0.35,1.39 0.49,0 0.35,-0.68 0.35,-1.39 0,-0.46 -0.69,-0.46 -0.69,0z"/>
 </g>
</svg>
