<?xml version="1.0" encoding="UTF-8"?>
<!DOCTYPE svg PUBLIC "-//W3C//DTD SVG 1.1//EN" "http://www.w3.org/Graphics/SVG/1.1/DTD/svg11.dtd">
<!-- Creator: CorelDRAW 2021 (64-Bit) -->
<svg xmlns="http://www.w3.org/2000/svg" xml:space="preserve" width="31.7111mm" height="11.4241mm" version="1.1" style="shape-rendering:geometricPrecision; text-rendering:geometricPrecision; image-rendering:optimizeQuality; fill-rule:evenodd; clip-rule:evenodd"
viewBox="0 0 140.86 50.75"
 xmlns:xlink="http://www.w3.org/1999/xlink"
 xmlns:xodm="http://www.corel.com/coreldraw/odm/2003">
 <defs>
  <style type="text/css">
   <![CDATA[
    .fil0 {fill:#14FCCE}
   ]]>
  </style>
 </defs>
 <g id="Capa_x0020_1">
  <metadata id="CorelCorpID_0Corel-Layer"/>
  <path class="fil0" d="M2.97 50.75c1.17,-3.38 2.69,-6.65 4.3,-9.83 0.74,-1.45 1.58,-2.81 2.42,-4.19 0.7,-1.15 1.38,-2.26 2.19,-3.34l0.94 -1.32c1.12,-1.49 3.25,-4.33 4.46,-5.51l5.57 -5.57c1.12,-1.09 2.4,-2.02 3.6,-3.01 2.06,-1.69 4.28,-3.19 6.57,-4.57l7.18 -3.87c5.08,-2.26 9.37,-3.84 14.94,-5.07 1.26,-0.28 2.44,-0.49 3.73,-0.71 4.12,-0.68 7.94,-0.92 12.39,-0.92l3.18 0.08c1.08,0 4.05,0.32 5.13,0.48 1.34,0.2 2.6,0.4 3.84,0.6 1.29,0.21 2.44,0.52 3.67,0.77 2.34,0.48 4.59,1.26 6.86,2.01 3.27,1.08 6.27,2.49 9.3,4.01 1,0.5 1.89,1.02 2.87,1.56l2.75 1.68c2.2,1.48 4.34,2.98 6.42,4.63 1.23,0.98 2.48,1.99 3.59,3.11 1.09,1.1 2.29,2.12 3.35,3.26l1.08 1.18c0.22,0.26 0.26,0.34 0.51,0.58 1.57,1.57 4.1,5.05 5.38,6.85 1.24,1.75 2.36,3.59 3.41,5.47l2.62 5.08c0.62,1.26 1.15,2.64 1.67,3.94 0.34,0.86 0.67,1.72 0.98,2.6l2.99 0c-0.2,-0.61 -0.41,-1.21 -0.61,-1.77 -0.62,-1.71 -1.29,-3.31 -2,-4.95 -1.07,-2.48 -2.71,-5.55 -4.13,-7.93 -0.22,-0.37 -0.45,-0.72 -0.67,-1.09 -1.25,-2.09 -4.64,-6.94 -6.55,-8.94 -0.19,-0.2 -0.21,-0.27 -0.38,-0.46l-5.98 -6.16c-1.35,-1.25 -2.79,-2.4 -4.22,-3.56 -0.35,-0.29 -0.63,-0.48 -1,-0.76 -2.62,-2.05 -5.44,-3.84 -8.32,-5.49 -0.35,-0.2 -0.73,-0.43 -1.12,-0.64 -4.78,-2.57 -9.86,-4.64 -15.1,-6.16 -2.14,-0.62 -4.32,-1.19 -6.57,-1.56 -2.29,-0.38 -5.32,-0.94 -7.61,-1.02 -0.38,-0.01 -1.22,-0.07 -1.63,-0.13 -1.07,-0.16 -4.45,-0.12 -5.66,-0.12 -8.02,0 -15.71,1.57 -23.22,4.07 -2.57,0.85 -4.91,1.81 -7.25,2.96 -0.27,0.13 -0.52,0.21 -0.81,0.36 -0.53,0.27 -0.97,0.49 -1.51,0.75 -1.96,0.98 -3.9,2.12 -5.74,3.31 -0.96,0.62 -1.86,1.15 -2.77,1.84 -0.23,0.17 -0.43,0.29 -0.65,0.44l-1.97 1.46c-0.89,0.7 -1.69,1.35 -2.56,2.05l-0.9 0.78c-0.15,0.12 -0.17,0.11 -0.33,0.26 -0.24,0.22 -0.29,0.3 -0.57,0.52 -0.76,0.59 -4.58,4.35 -5.2,5.1 -1.03,1.24 -2.13,2.39 -3.13,3.65 -2.4,3.01 -4.53,6.15 -6.52,9.47l-2.76 5.19c-0.13,0.27 -0.21,0.52 -0.36,0.81 -0.97,1.93 -1.96,4.42 -2.64,6.49 -0.14,0.43 -0.3,0.83 -0.44,1.25l2.97 0z"/>
 </g>
</svg>
